<svg width="2438" height="156" viewBox="0 0 2438 156" fill="none" xmlns="http://www.w3.org/2000/svg">
<mask id="path-1-outside-1_75_7" maskUnits="userSpaceOnUse" x="0" y="0" width="774" height="156" fill="black">
<rect fill="white" width="774" height="156"/>
<path d="M10.1491 149.276C8.99656 149.276 8.01691 148.867 7.21015 148.048C6.40338 147.093 6 145.865 6 144.364V11.117C6 9.61602 6.40338 8.38793 7.21015 7.43276C8.01691 6.47759 8.99656 6 10.1491 6H25.881C27.1488 6 28.1284 6.47759 28.8199 7.43276C29.6267 8.38793 30.0301 9.61602 30.0301 11.117V63.9245H81.0292V11.117C81.0292 9.61602 81.4325 8.38793 82.2393 7.43276C83.0461 6.47759 84.0257 6 85.1782 6H100.737C102.005 6 103.042 6.47759 103.849 7.43276C104.656 8.38793 105.059 9.61602 105.059 11.117V144.364C105.059 145.728 104.656 146.888 103.849 147.843C103.042 148.799 102.005 149.276 100.737 149.276H85.1782C84.0257 149.276 83.0461 148.799 82.2393 147.843C81.4325 146.888 81.0292 145.728 81.0292 144.364V89.5095H30.0301V144.364C30.0301 145.728 29.6267 146.888 28.8199 147.843C28.1284 148.799 27.1488 149.276 25.881 149.276H10.1491Z"/>
<path d="M136.094 149.276C134.941 149.276 133.961 148.799 133.155 147.843C132.348 146.888 131.944 145.728 131.944 144.364V11.117C131.944 9.61602 132.348 8.38793 133.155 7.43276C133.961 6.47759 134.941 6 136.094 6H212.16C213.428 6 214.465 6.47759 215.272 7.43276C216.079 8.38793 216.482 9.61602 216.482 11.117V24.6259C216.482 25.9904 216.079 27.1503 215.272 28.1055C214.465 29.0606 213.428 29.5382 212.16 29.5382H155.283V65.7666H208.357C209.624 65.7666 210.662 66.2442 211.468 67.1994C212.275 68.0181 212.679 69.1779 212.679 70.6789V83.3691C212.679 84.8701 212.275 86.0982 211.468 87.0533C210.662 87.8721 209.624 88.2814 208.357 88.2814H155.283V125.738H213.543C214.811 125.738 215.848 126.215 216.655 127.171C217.462 128.126 217.865 129.354 217.865 130.855V144.364C217.865 145.728 217.462 146.888 216.655 147.843C215.848 148.799 214.811 149.276 213.543 149.276H136.094Z"/>
<path d="M232.053 149.276C231.131 149.276 230.267 148.867 229.46 148.048C228.768 147.229 228.423 146.206 228.423 144.978C228.423 144.432 228.538 143.818 228.768 143.136L270.432 11.117C270.778 9.75247 271.412 8.59261 272.334 7.63744C273.371 6.54581 274.754 6 276.483 6H295.327C297.055 6 298.381 6.54581 299.303 7.63744C300.225 8.59261 300.916 9.75247 301.377 11.117L343.041 143.136C343.156 143.818 343.214 144.432 343.214 144.978C343.214 146.206 342.868 147.229 342.177 148.048C341.485 148.867 340.678 149.276 339.756 149.276H324.716C323.102 149.276 321.892 148.867 321.085 148.048C320.394 147.093 319.933 146.206 319.702 145.387L311.577 120.416H260.232L252.107 145.387C251.877 146.206 251.358 147.093 250.551 148.048C249.86 148.867 248.707 149.276 247.094 149.276H232.053ZM266.283 96.878H305.526L285.818 33.6318L266.283 96.878Z"/>
<path d="M363.503 149.276C362.35 149.276 361.371 148.799 360.564 147.843C359.757 146.888 359.354 145.728 359.354 144.364V10.9123C359.354 9.54779 359.757 8.38793 360.564 7.43276C361.371 6.47759 362.35 6 363.503 6H379.58C380.733 6 381.713 6.47759 382.519 7.43276C383.326 8.38793 383.729 9.54779 383.729 10.9123V124.919H438.532C439.8 124.919 440.837 125.397 441.644 126.352C442.45 127.307 442.854 128.535 442.854 130.036V144.364C442.854 145.728 442.45 146.888 441.644 147.843C440.837 148.799 439.8 149.276 438.532 149.276H363.503Z"/>
<path d="M470.825 149.276C469.672 149.276 468.693 148.799 467.886 147.843C467.079 146.888 466.676 145.728 466.676 144.364V31.1757H434.693C433.541 31.1757 432.561 30.6981 431.754 29.7429C430.948 28.7877 430.544 27.6279 430.544 26.2633V11.117C430.544 9.61602 430.948 8.38793 431.754 7.43276C432.561 6.47759 433.541 6 434.693 6H522.861C524.129 6 525.166 6.47759 525.973 7.43276C526.78 8.38793 527.183 9.61602 527.183 11.117V26.2633C527.183 27.6279 526.78 28.7877 525.973 29.7429C525.166 30.6981 524.129 31.1757 522.861 31.1757H491.052V144.364C491.052 145.728 490.648 146.888 489.842 147.843C489.035 148.799 487.998 149.276 486.73 149.276H470.825Z"/>
<path d="M548.874 149.276C547.722 149.276 546.742 148.867 545.935 148.048C545.128 147.093 544.725 145.865 544.725 144.364V11.117C544.725 9.61602 545.128 8.38793 545.935 7.43276C546.742 6.47759 547.722 6 548.874 6H564.606C565.874 6 566.853 6.47759 567.545 7.43276C568.352 8.38793 568.755 9.61602 568.755 11.117V63.9245H619.754V11.117C619.754 9.61602 620.158 8.38793 620.964 7.43276C621.771 6.47759 622.751 6 623.903 6H639.462C640.73 6 641.767 6.47759 642.574 7.43276C643.381 8.38793 643.784 9.61602 643.784 11.117V144.364C643.784 145.728 643.381 146.888 642.574 147.843C641.767 148.799 640.73 149.276 639.462 149.276H623.903C622.751 149.276 621.771 148.799 620.964 147.843C620.158 146.888 619.754 145.728 619.754 144.364V89.5095H568.755V144.364C568.755 145.728 568.352 146.888 567.545 147.843C566.853 148.799 565.874 149.276 564.606 149.276H548.874Z"/>
<path d="M706.628 149.276C705.476 149.276 704.496 148.799 703.689 147.843C702.882 146.888 702.479 145.728 702.479 144.364V98.1061L661.68 12.5498C661.565 12.2769 661.449 11.9357 661.334 11.5264C661.219 11.117 661.161 10.7076 661.161 10.2983C661.161 9.07021 661.507 8.04681 662.199 7.22809C662.89 6.40936 663.697 6 664.619 6H680.005C681.388 6 682.483 6.40936 683.29 7.22809C684.212 8.04681 684.846 8.93375 685.191 9.88892L714.581 69.4509L743.797 9.88892C744.258 8.93375 744.892 8.04681 745.699 7.22809C746.621 6.40936 747.773 6 749.156 6H764.37C765.407 6 766.271 6.40936 766.963 7.22809C767.654 8.04681 768 9.07021 768 10.2983C768 10.7076 767.942 11.117 767.827 11.5264C767.827 11.9357 767.712 12.2769 767.481 12.5498L726.682 98.1061V144.364C726.682 145.728 726.279 146.888 725.472 147.843C724.665 148.799 723.628 149.276 722.36 149.276H706.628Z"/>
</mask>
<path d="M10.1491 149.276C8.99656 149.276 8.01691 148.867 7.21015 148.048C6.40338 147.093 6 145.865 6 144.364V11.117C6 9.61602 6.40338 8.38793 7.21015 7.43276C8.01691 6.47759 8.99656 6 10.1491 6H25.881C27.1488 6 28.1284 6.47759 28.8199 7.43276C29.6267 8.38793 30.0301 9.61602 30.0301 11.117V63.9245H81.0292V11.117C81.0292 9.61602 81.4325 8.38793 82.2393 7.43276C83.0461 6.47759 84.0257 6 85.1782 6H100.737C102.005 6 103.042 6.47759 103.849 7.43276C104.656 8.38793 105.059 9.61602 105.059 11.117V144.364C105.059 145.728 104.656 146.888 103.849 147.843C103.042 148.799 102.005 149.276 100.737 149.276H85.1782C84.0257 149.276 83.0461 148.799 82.2393 147.843C81.4325 146.888 81.0292 145.728 81.0292 144.364V89.5095H30.0301V144.364C30.0301 145.728 29.6267 146.888 28.8199 147.843C28.1284 148.799 27.1488 149.276 25.881 149.276H10.1491Z" stroke="#FAFAFA" stroke-width="12" mask="url(#path-1-outside-1_75_7)"/>
<path d="M136.094 149.276C134.941 149.276 133.961 148.799 133.155 147.843C132.348 146.888 131.944 145.728 131.944 144.364V11.117C131.944 9.61602 132.348 8.38793 133.155 7.43276C133.961 6.47759 134.941 6 136.094 6H212.16C213.428 6 214.465 6.47759 215.272 7.43276C216.079 8.38793 216.482 9.61602 216.482 11.117V24.6259C216.482 25.9904 216.079 27.1503 215.272 28.1055C214.465 29.0606 213.428 29.5382 212.16 29.5382H155.283V65.7666H208.357C209.624 65.7666 210.662 66.2442 211.468 67.1994C212.275 68.0181 212.679 69.1779 212.679 70.6789V83.3691C212.679 84.8701 212.275 86.0982 211.468 87.0533C210.662 87.8721 209.624 88.2814 208.357 88.2814H155.283V125.738H213.543C214.811 125.738 215.848 126.215 216.655 127.171C217.462 128.126 217.865 129.354 217.865 130.855V144.364C217.865 145.728 217.462 146.888 216.655 147.843C215.848 148.799 214.811 149.276 213.543 149.276H136.094Z" stroke="#FAFAFA" stroke-width="12" mask="url(#path-1-outside-1_75_7)"/>
<path d="M232.053 149.276C231.131 149.276 230.267 148.867 229.46 148.048C228.768 147.229 228.423 146.206 228.423 144.978C228.423 144.432 228.538 143.818 228.768 143.136L270.432 11.117C270.778 9.75247 271.412 8.59261 272.334 7.63744C273.371 6.54581 274.754 6 276.483 6H295.327C297.055 6 298.381 6.54581 299.303 7.63744C300.225 8.59261 300.916 9.75247 301.377 11.117L343.041 143.136C343.156 143.818 343.214 144.432 343.214 144.978C343.214 146.206 342.868 147.229 342.177 148.048C341.485 148.867 340.678 149.276 339.756 149.276H324.716C323.102 149.276 321.892 148.867 321.085 148.048C320.394 147.093 319.933 146.206 319.702 145.387L311.577 120.416H260.232L252.107 145.387C251.877 146.206 251.358 147.093 250.551 148.048C249.86 148.867 248.707 149.276 247.094 149.276H232.053ZM266.283 96.878H305.526L285.818 33.6318L266.283 96.878Z" stroke="#FAFAFA" stroke-width="12" mask="url(#path-1-outside-1_75_7)"/>
<path d="M363.503 149.276C362.35 149.276 361.371 148.799 360.564 147.843C359.757 146.888 359.354 145.728 359.354 144.364V10.9123C359.354 9.54779 359.757 8.38793 360.564 7.43276C361.371 6.47759 362.35 6 363.503 6H379.58C380.733 6 381.713 6.47759 382.519 7.43276C383.326 8.38793 383.729 9.54779 383.729 10.9123V124.919H438.532C439.8 124.919 440.837 125.397 441.644 126.352C442.45 127.307 442.854 128.535 442.854 130.036V144.364C442.854 145.728 442.45 146.888 441.644 147.843C440.837 148.799 439.8 149.276 438.532 149.276H363.503Z" stroke="#FAFAFA" stroke-width="12" mask="url(#path-1-outside-1_75_7)"/>
<path d="M470.825 149.276C469.672 149.276 468.693 148.799 467.886 147.843C467.079 146.888 466.676 145.728 466.676 144.364V31.1757H434.693C433.541 31.1757 432.561 30.6981 431.754 29.7429C430.948 28.7877 430.544 27.6279 430.544 26.2633V11.117C430.544 9.61602 430.948 8.38793 431.754 7.43276C432.561 6.47759 433.541 6 434.693 6H522.861C524.129 6 525.166 6.47759 525.973 7.43276C526.78 8.38793 527.183 9.61602 527.183 11.117V26.2633C527.183 27.6279 526.78 28.7877 525.973 29.7429C525.166 30.6981 524.129 31.1757 522.861 31.1757H491.052V144.364C491.052 145.728 490.648 146.888 489.842 147.843C489.035 148.799 487.998 149.276 486.73 149.276H470.825Z" stroke="#FAFAFA" stroke-width="12" mask="url(#path-1-outside-1_75_7)"/>
<path d="M548.874 149.276C547.722 149.276 546.742 148.867 545.935 148.048C545.128 147.093 544.725 145.865 544.725 144.364V11.117C544.725 9.61602 545.128 8.38793 545.935 7.43276C546.742 6.47759 547.722 6 548.874 6H564.606C565.874 6 566.853 6.47759 567.545 7.43276C568.352 8.38793 568.755 9.61602 568.755 11.117V63.9245H619.754V11.117C619.754 9.61602 620.158 8.38793 620.964 7.43276C621.771 6.47759 622.751 6 623.903 6H639.462C640.73 6 641.767 6.47759 642.574 7.43276C643.381 8.38793 643.784 9.61602 643.784 11.117V144.364C643.784 145.728 643.381 146.888 642.574 147.843C641.767 148.799 640.73 149.276 639.462 149.276H623.903C622.751 149.276 621.771 148.799 620.964 147.843C620.158 146.888 619.754 145.728 619.754 144.364V89.5095H568.755V144.364C568.755 145.728 568.352 146.888 567.545 147.843C566.853 148.799 565.874 149.276 564.606 149.276H548.874Z" stroke="#FAFAFA" stroke-width="12" mask="url(#path-1-outside-1_75_7)"/>
<path d="M706.628 149.276C705.476 149.276 704.496 148.799 703.689 147.843C702.882 146.888 702.479 145.728 702.479 144.364V98.1061L661.68 12.5498C661.565 12.2769 661.449 11.9357 661.334 11.5264C661.219 11.117 661.161 10.7076 661.161 10.2983C661.161 9.07021 661.507 8.04681 662.199 7.22809C662.89 6.40936 663.697 6 664.619 6H680.005C681.388 6 682.483 6.40936 683.29 7.22809C684.212 8.04681 684.846 8.93375 685.191 9.88892L714.581 69.4509L743.797 9.88892C744.258 8.93375 744.892 8.04681 745.699 7.22809C746.621 6.40936 747.773 6 749.156 6H764.37C765.407 6 766.271 6.40936 766.963 7.22809C767.654 8.04681 768 9.07021 768 10.2983C768 10.7076 767.942 11.117 767.827 11.5264C767.827 11.9357 767.712 12.2769 767.481 12.5498L726.682 98.1061V144.364C726.682 145.728 726.279 146.888 725.472 147.843C724.665 148.799 723.628 149.276 722.36 149.276H706.628Z" stroke="#FAFAFA" stroke-width="12" mask="url(#path-1-outside-1_75_7)"/>
<mask id="path-2-outside-2_75_7" maskUnits="userSpaceOnUse" x="832" y="0" width="774" height="156" fill="black">
<rect fill="white" x="832" width="774" height="156"/>
<path d="M842.149 149.276C840.997 149.276 840.017 148.867 839.21 148.048C838.403 147.093 838 145.865 838 144.364V11.117C838 9.61602 838.403 8.38793 839.21 7.43276C840.017 6.47759 840.997 6 842.149 6H857.881C859.149 6 860.128 6.47759 860.82 7.43276C861.627 8.38793 862.03 9.61602 862.03 11.117V63.9245H913.029V11.117C913.029 9.61602 913.433 8.38793 914.239 7.43276C915.046 6.47759 916.026 6 917.178 6H932.737C934.005 6 935.042 6.47759 935.849 7.43276C936.656 8.38793 937.059 9.61602 937.059 11.117V144.364C937.059 145.728 936.656 146.888 935.849 147.843C935.042 148.799 934.005 149.276 932.737 149.276H917.178C916.026 149.276 915.046 148.799 914.239 147.843C913.433 146.888 913.029 145.728 913.029 144.364V89.5095H862.03V144.364C862.03 145.728 861.627 146.888 860.82 147.843C860.128 148.799 859.149 149.276 857.881 149.276H842.149Z"/>
<path d="M968.094 149.276C966.941 149.276 965.961 148.799 965.155 147.843C964.348 146.888 963.944 145.728 963.944 144.364V11.117C963.944 9.61602 964.348 8.38793 965.155 7.43276C965.961 6.47759 966.941 6 968.094 6H1044.16C1045.43 6 1046.47 6.47759 1047.27 7.43276C1048.08 8.38793 1048.48 9.61602 1048.48 11.117V24.6259C1048.48 25.9904 1048.08 27.1503 1047.27 28.1055C1046.47 29.0606 1045.43 29.5382 1044.16 29.5382H987.283V65.7666H1040.36C1041.62 65.7666 1042.66 66.2442 1043.47 67.1994C1044.28 68.0181 1044.68 69.1779 1044.68 70.6789V83.3691C1044.68 84.8701 1044.28 86.0982 1043.47 87.0533C1042.66 87.8721 1041.62 88.2814 1040.36 88.2814H987.283V125.738H1045.54C1046.81 125.738 1047.85 126.215 1048.65 127.171C1049.46 128.126 1049.86 129.354 1049.86 130.855V144.364C1049.86 145.728 1049.46 146.888 1048.65 147.843C1047.85 148.799 1046.81 149.276 1045.54 149.276H968.094Z"/>
<path d="M1064.05 149.276C1063.13 149.276 1062.27 148.867 1061.46 148.048C1060.77 147.229 1060.42 146.206 1060.42 144.978C1060.42 144.432 1060.54 143.818 1060.77 143.136L1102.43 11.117C1102.78 9.75247 1103.41 8.59261 1104.33 7.63744C1105.37 6.54581 1106.75 6 1108.48 6H1127.33C1129.06 6 1130.38 6.54581 1131.3 7.63744C1132.22 8.59261 1132.92 9.75247 1133.38 11.117L1175.04 143.136C1175.16 143.818 1175.21 144.432 1175.21 144.978C1175.21 146.206 1174.87 147.229 1174.18 148.048C1173.49 148.867 1172.68 149.276 1171.76 149.276H1156.72C1155.1 149.276 1153.89 148.867 1153.09 148.048C1152.39 147.093 1151.93 146.206 1151.7 145.387L1143.58 120.416H1092.23L1084.11 145.387C1083.88 146.206 1083.36 147.093 1082.55 148.048C1081.86 148.867 1080.71 149.276 1079.09 149.276H1064.05ZM1098.28 96.878H1137.53L1117.82 33.6318L1098.28 96.878Z"/>
<path d="M1195.5 149.276C1194.35 149.276 1193.37 148.799 1192.56 147.843C1191.76 146.888 1191.35 145.728 1191.35 144.364V10.9123C1191.35 9.54779 1191.76 8.38793 1192.56 7.43276C1193.37 6.47759 1194.35 6 1195.5 6H1211.58C1212.73 6 1213.71 6.47759 1214.52 7.43276C1215.33 8.38793 1215.73 9.54779 1215.73 10.9123V124.919H1270.53C1271.8 124.919 1272.84 125.397 1273.64 126.352C1274.45 127.307 1274.85 128.535 1274.85 130.036V144.364C1274.85 145.728 1274.45 146.888 1273.64 147.843C1272.84 148.799 1271.8 149.276 1270.53 149.276H1195.5Z"/>
<path d="M1302.82 149.276C1301.67 149.276 1300.69 148.799 1299.89 147.843C1299.08 146.888 1298.68 145.728 1298.68 144.364V31.1757H1266.69C1265.54 31.1757 1264.56 30.6981 1263.75 29.7429C1262.95 28.7877 1262.54 27.6279 1262.54 26.2633V11.117C1262.54 9.61602 1262.95 8.38793 1263.75 7.43276C1264.56 6.47759 1265.54 6 1266.69 6H1354.86C1356.13 6 1357.17 6.47759 1357.97 7.43276C1358.78 8.38793 1359.18 9.61602 1359.18 11.117V26.2633C1359.18 27.6279 1358.78 28.7877 1357.97 29.7429C1357.17 30.6981 1356.13 31.1757 1354.86 31.1757H1323.05V144.364C1323.05 145.728 1322.65 146.888 1321.84 147.843C1321.03 148.799 1320 149.276 1318.73 149.276H1302.82Z"/>
<path d="M1380.87 149.276C1379.72 149.276 1378.74 148.867 1377.94 148.048C1377.13 147.093 1376.73 145.865 1376.73 144.364V11.117C1376.73 9.61602 1377.13 8.38793 1377.94 7.43276C1378.74 6.47759 1379.72 6 1380.87 6H1396.61C1397.87 6 1398.85 6.47759 1399.54 7.43276C1400.35 8.38793 1400.76 9.61602 1400.76 11.117V63.9245H1451.75V11.117C1451.75 9.61602 1452.16 8.38793 1452.96 7.43276C1453.77 6.47759 1454.75 6 1455.9 6H1471.46C1472.73 6 1473.77 6.47759 1474.57 7.43276C1475.38 8.38793 1475.78 9.61602 1475.78 11.117V144.364C1475.78 145.728 1475.38 146.888 1474.57 147.843C1473.77 148.799 1472.73 149.276 1471.46 149.276H1455.9C1454.75 149.276 1453.77 148.799 1452.96 147.843C1452.16 146.888 1451.75 145.728 1451.75 144.364V89.5095H1400.76V144.364C1400.76 145.728 1400.35 146.888 1399.54 147.843C1398.85 148.799 1397.87 149.276 1396.61 149.276H1380.87Z"/>
<path d="M1538.63 149.276C1537.48 149.276 1536.5 148.799 1535.69 147.843C1534.88 146.888 1534.48 145.728 1534.48 144.364V98.1061L1493.68 12.5498C1493.56 12.2769 1493.45 11.9357 1493.33 11.5264C1493.22 11.117 1493.16 10.7076 1493.16 10.2983C1493.16 9.07021 1493.51 8.04681 1494.2 7.22809C1494.89 6.40936 1495.7 6 1496.62 6H1512C1513.39 6 1514.48 6.40936 1515.29 7.22809C1516.21 8.04681 1516.85 8.93375 1517.19 9.88892L1546.58 69.4509L1575.8 9.88892C1576.26 8.93375 1576.89 8.04681 1577.7 7.22809C1578.62 6.40936 1579.77 6 1581.16 6H1596.37C1597.41 6 1598.27 6.40936 1598.96 7.22809C1599.65 8.04681 1600 9.07021 1600 10.2983C1600 10.7076 1599.94 11.117 1599.83 11.5264C1599.83 11.9357 1599.71 12.2769 1599.48 12.5498L1558.68 98.1061V144.364C1558.68 145.728 1558.28 146.888 1557.47 147.843C1556.67 148.799 1555.63 149.276 1554.36 149.276H1538.63Z"/>
</mask>
<path d="M842.149 149.276C840.997 149.276 840.017 148.867 839.21 148.048C838.403 147.093 838 145.865 838 144.364V11.117C838 9.61602 838.403 8.38793 839.21 7.43276C840.017 6.47759 840.997 6 842.149 6H857.881C859.149 6 860.128 6.47759 860.82 7.43276C861.627 8.38793 862.03 9.61602 862.03 11.117V63.9245H913.029V11.117C913.029 9.61602 913.433 8.38793 914.239 7.43276C915.046 6.47759 916.026 6 917.178 6H932.737C934.005 6 935.042 6.47759 935.849 7.43276C936.656 8.38793 937.059 9.61602 937.059 11.117V144.364C937.059 145.728 936.656 146.888 935.849 147.843C935.042 148.799 934.005 149.276 932.737 149.276H917.178C916.026 149.276 915.046 148.799 914.239 147.843C913.433 146.888 913.029 145.728 913.029 144.364V89.5095H862.03V144.364C862.03 145.728 861.627 146.888 860.82 147.843C860.128 148.799 859.149 149.276 857.881 149.276H842.149Z" stroke="#FAFAFA" stroke-width="12" mask="url(#path-2-outside-2_75_7)"/>
<path d="M968.094 149.276C966.941 149.276 965.961 148.799 965.155 147.843C964.348 146.888 963.944 145.728 963.944 144.364V11.117C963.944 9.61602 964.348 8.38793 965.155 7.43276C965.961 6.47759 966.941 6 968.094 6H1044.16C1045.43 6 1046.47 6.47759 1047.27 7.43276C1048.08 8.38793 1048.48 9.61602 1048.48 11.117V24.6259C1048.48 25.9904 1048.08 27.1503 1047.27 28.1055C1046.47 29.0606 1045.43 29.5382 1044.16 29.5382H987.283V65.7666H1040.36C1041.62 65.7666 1042.66 66.2442 1043.47 67.1994C1044.28 68.0181 1044.68 69.1779 1044.68 70.6789V83.3691C1044.68 84.8701 1044.28 86.0982 1043.47 87.0533C1042.66 87.8721 1041.62 88.2814 1040.36 88.2814H987.283V125.738H1045.54C1046.81 125.738 1047.85 126.215 1048.65 127.171C1049.46 128.126 1049.86 129.354 1049.86 130.855V144.364C1049.86 145.728 1049.46 146.888 1048.65 147.843C1047.85 148.799 1046.81 149.276 1045.54 149.276H968.094Z" stroke="#FAFAFA" stroke-width="12" mask="url(#path-2-outside-2_75_7)"/>
<path d="M1064.05 149.276C1063.13 149.276 1062.27 148.867 1061.46 148.048C1060.77 147.229 1060.42 146.206 1060.42 144.978C1060.42 144.432 1060.54 143.818 1060.77 143.136L1102.43 11.117C1102.78 9.75247 1103.41 8.59261 1104.33 7.63744C1105.37 6.54581 1106.75 6 1108.48 6H1127.33C1129.06 6 1130.38 6.54581 1131.3 7.63744C1132.22 8.59261 1132.92 9.75247 1133.38 11.117L1175.04 143.136C1175.16 143.818 1175.21 144.432 1175.21 144.978C1175.21 146.206 1174.87 147.229 1174.18 148.048C1173.49 148.867 1172.68 149.276 1171.76 149.276H1156.72C1155.1 149.276 1153.89 148.867 1153.09 148.048C1152.39 147.093 1151.93 146.206 1151.7 145.387L1143.58 120.416H1092.23L1084.11 145.387C1083.88 146.206 1083.36 147.093 1082.55 148.048C1081.86 148.867 1080.71 149.276 1079.09 149.276H1064.05ZM1098.28 96.878H1137.53L1117.82 33.6318L1098.28 96.878Z" stroke="#FAFAFA" stroke-width="12" mask="url(#path-2-outside-2_75_7)"/>
<path d="M1195.5 149.276C1194.35 149.276 1193.37 148.799 1192.56 147.843C1191.76 146.888 1191.35 145.728 1191.35 144.364V10.9123C1191.35 9.54779 1191.76 8.38793 1192.56 7.43276C1193.37 6.47759 1194.35 6 1195.5 6H1211.58C1212.73 6 1213.71 6.47759 1214.52 7.43276C1215.33 8.38793 1215.73 9.54779 1215.73 10.9123V124.919H1270.53C1271.8 124.919 1272.84 125.397 1273.64 126.352C1274.45 127.307 1274.85 128.535 1274.85 130.036V144.364C1274.85 145.728 1274.45 146.888 1273.64 147.843C1272.84 148.799 1271.8 149.276 1270.53 149.276H1195.5Z" stroke="#FAFAFA" stroke-width="12" mask="url(#path-2-outside-2_75_7)"/>
<path d="M1302.82 149.276C1301.67 149.276 1300.69 148.799 1299.89 147.843C1299.08 146.888 1298.68 145.728 1298.68 144.364V31.1757H1266.69C1265.54 31.1757 1264.56 30.6981 1263.75 29.7429C1262.95 28.7877 1262.54 27.6279 1262.54 26.2633V11.117C1262.54 9.61602 1262.95 8.38793 1263.75 7.43276C1264.56 6.47759 1265.54 6 1266.69 6H1354.86C1356.13 6 1357.17 6.47759 1357.97 7.43276C1358.78 8.38793 1359.18 9.61602 1359.18 11.117V26.2633C1359.18 27.6279 1358.78 28.7877 1357.97 29.7429C1357.17 30.6981 1356.13 31.1757 1354.86 31.1757H1323.05V144.364C1323.05 145.728 1322.65 146.888 1321.84 147.843C1321.03 148.799 1320 149.276 1318.73 149.276H1302.82Z" stroke="#FAFAFA" stroke-width="12" mask="url(#path-2-outside-2_75_7)"/>
<path d="M1380.87 149.276C1379.72 149.276 1378.74 148.867 1377.94 148.048C1377.13 147.093 1376.73 145.865 1376.73 144.364V11.117C1376.73 9.61602 1377.13 8.38793 1377.94 7.43276C1378.74 6.47759 1379.72 6 1380.87 6H1396.61C1397.87 6 1398.85 6.47759 1399.54 7.43276C1400.35 8.38793 1400.76 9.61602 1400.76 11.117V63.9245H1451.75V11.117C1451.75 9.61602 1452.16 8.38793 1452.96 7.43276C1453.77 6.47759 1454.75 6 1455.9 6H1471.46C1472.73 6 1473.77 6.47759 1474.57 7.43276C1475.38 8.38793 1475.78 9.61602 1475.78 11.117V144.364C1475.78 145.728 1475.38 146.888 1474.57 147.843C1473.77 148.799 1472.73 149.276 1471.46 149.276H1455.9C1454.75 149.276 1453.77 148.799 1452.96 147.843C1452.16 146.888 1451.75 145.728 1451.75 144.364V89.5095H1400.76V144.364C1400.76 145.728 1400.35 146.888 1399.54 147.843C1398.85 148.799 1397.87 149.276 1396.61 149.276H1380.87Z" stroke="#FAFAFA" stroke-width="12" mask="url(#path-2-outside-2_75_7)"/>
<path d="M1538.63 149.276C1537.48 149.276 1536.5 148.799 1535.69 147.843C1534.88 146.888 1534.48 145.728 1534.48 144.364V98.1061L1493.68 12.5498C1493.56 12.2769 1493.45 11.9357 1493.33 11.5264C1493.22 11.117 1493.16 10.7076 1493.16 10.2983C1493.16 9.07021 1493.51 8.04681 1494.2 7.22809C1494.89 6.40936 1495.7 6 1496.62 6H1512C1513.39 6 1514.48 6.40936 1515.29 7.22809C1516.21 8.04681 1516.85 8.93375 1517.19 9.88892L1546.58 69.4509L1575.8 9.88892C1576.26 8.93375 1576.89 8.04681 1577.7 7.22809C1578.62 6.40936 1579.77 6 1581.16 6H1596.37C1597.41 6 1598.27 6.40936 1598.96 7.22809C1599.65 8.04681 1600 9.07021 1600 10.2983C1600 10.7076 1599.94 11.117 1599.83 11.5264C1599.83 11.9357 1599.71 12.2769 1599.48 12.5498L1558.68 98.1061V144.364C1558.68 145.728 1558.28 146.888 1557.47 147.843C1556.67 148.799 1555.63 149.276 1554.36 149.276H1538.63Z" stroke="#FAFAFA" stroke-width="12" mask="url(#path-2-outside-2_75_7)"/>
<mask id="path-3-outside-3_75_7" maskUnits="userSpaceOnUse" x="1664" y="0" width="774" height="156" fill="black">
<rect fill="white" x="1664" width="774" height="156"/>
<path d="M1674.15 149.276C1673 149.276 1672.02 148.867 1671.21 148.048C1670.4 147.093 1670 145.865 1670 144.364V11.117C1670 9.61602 1670.4 8.38793 1671.21 7.43276C1672.02 6.47759 1673 6 1674.15 6H1689.88C1691.15 6 1692.13 6.47759 1692.82 7.43276C1693.63 8.38793 1694.03 9.61602 1694.03 11.117V63.9245H1745.03V11.117C1745.03 9.61602 1745.43 8.38793 1746.24 7.43276C1747.05 6.47759 1748.03 6 1749.18 6H1764.74C1766.01 6 1767.04 6.47759 1767.85 7.43276C1768.66 8.38793 1769.06 9.61602 1769.06 11.117V144.364C1769.06 145.728 1768.66 146.888 1767.85 147.843C1767.04 148.799 1766.01 149.276 1764.74 149.276H1749.18C1748.03 149.276 1747.05 148.799 1746.24 147.843C1745.43 146.888 1745.03 145.728 1745.03 144.364V89.5095H1694.03V144.364C1694.03 145.728 1693.63 146.888 1692.82 147.843C1692.13 148.799 1691.15 149.276 1689.88 149.276H1674.15Z"/>
<path d="M1800.09 149.276C1798.94 149.276 1797.96 148.799 1797.15 147.843C1796.35 146.888 1795.94 145.728 1795.94 144.364V11.117C1795.94 9.61602 1796.35 8.38793 1797.15 7.43276C1797.96 6.47759 1798.94 6 1800.09 6H1876.16C1877.43 6 1878.47 6.47759 1879.27 7.43276C1880.08 8.38793 1880.48 9.61602 1880.48 11.117V24.6259C1880.48 25.9904 1880.08 27.1503 1879.27 28.1055C1878.47 29.0606 1877.43 29.5382 1876.16 29.5382H1819.28V65.7666H1872.36C1873.62 65.7666 1874.66 66.2442 1875.47 67.1994C1876.28 68.0181 1876.68 69.1779 1876.68 70.6789V83.3691C1876.68 84.8701 1876.28 86.0982 1875.47 87.0533C1874.66 87.8721 1873.62 88.2814 1872.36 88.2814H1819.28V125.738H1877.54C1878.81 125.738 1879.85 126.215 1880.65 127.171C1881.46 128.126 1881.86 129.354 1881.86 130.855V144.364C1881.86 145.728 1881.46 146.888 1880.65 147.843C1879.85 148.799 1878.81 149.276 1877.54 149.276H1800.09Z"/>
<path d="M1896.05 149.276C1895.13 149.276 1894.27 148.867 1893.46 148.048C1892.77 147.229 1892.42 146.206 1892.42 144.978C1892.42 144.432 1892.54 143.818 1892.77 143.136L1934.43 11.117C1934.78 9.75247 1935.41 8.59261 1936.33 7.63744C1937.37 6.54581 1938.75 6 1940.48 6H1959.33C1961.06 6 1962.38 6.54581 1963.3 7.63744C1964.22 8.59261 1964.92 9.75247 1965.38 11.117L2007.04 143.136C2007.16 143.818 2007.21 144.432 2007.21 144.978C2007.21 146.206 2006.87 147.229 2006.18 148.048C2005.49 148.867 2004.68 149.276 2003.76 149.276H1988.72C1987.1 149.276 1985.89 148.867 1985.09 148.048C1984.39 147.093 1983.93 146.206 1983.7 145.387L1975.58 120.416H1924.23L1916.11 145.387C1915.88 146.206 1915.36 147.093 1914.55 148.048C1913.86 148.867 1912.71 149.276 1911.09 149.276H1896.05ZM1930.28 96.878H1969.53L1949.82 33.6318L1930.28 96.878Z"/>
<path d="M2027.5 149.276C2026.35 149.276 2025.37 148.799 2024.56 147.843C2023.76 146.888 2023.35 145.728 2023.35 144.364V10.9123C2023.35 9.54779 2023.76 8.38793 2024.56 7.43276C2025.37 6.47759 2026.35 6 2027.5 6H2043.58C2044.73 6 2045.71 6.47759 2046.52 7.43276C2047.33 8.38793 2047.73 9.54779 2047.73 10.9123V124.919H2102.53C2103.8 124.919 2104.84 125.397 2105.64 126.352C2106.45 127.307 2106.85 128.535 2106.85 130.036V144.364C2106.85 145.728 2106.45 146.888 2105.64 147.843C2104.84 148.799 2103.8 149.276 2102.53 149.276H2027.5Z"/>
<path d="M2134.82 149.276C2133.67 149.276 2132.69 148.799 2131.89 147.843C2131.08 146.888 2130.68 145.728 2130.68 144.364V31.1757H2098.69C2097.54 31.1757 2096.56 30.6981 2095.75 29.7429C2094.95 28.7877 2094.54 27.6279 2094.54 26.2633V11.117C2094.54 9.61602 2094.95 8.38793 2095.75 7.43276C2096.56 6.47759 2097.54 6 2098.69 6H2186.86C2188.13 6 2189.17 6.47759 2189.97 7.43276C2190.78 8.38793 2191.18 9.61602 2191.18 11.117V26.2633C2191.18 27.6279 2190.78 28.7877 2189.97 29.7429C2189.17 30.6981 2188.13 31.1757 2186.86 31.1757H2155.05V144.364C2155.05 145.728 2154.65 146.888 2153.84 147.843C2153.03 148.799 2152 149.276 2150.73 149.276H2134.82Z"/>
<path d="M2212.87 149.276C2211.72 149.276 2210.74 148.867 2209.94 148.048C2209.13 147.093 2208.73 145.865 2208.73 144.364V11.117C2208.73 9.61602 2209.13 8.38793 2209.94 7.43276C2210.74 6.47759 2211.72 6 2212.87 6H2228.61C2229.87 6 2230.85 6.47759 2231.54 7.43276C2232.35 8.38793 2232.76 9.61602 2232.76 11.117V63.9245H2283.75V11.117C2283.75 9.61602 2284.16 8.38793 2284.96 7.43276C2285.77 6.47759 2286.75 6 2287.9 6H2303.46C2304.73 6 2305.77 6.47759 2306.57 7.43276C2307.38 8.38793 2307.78 9.61602 2307.78 11.117V144.364C2307.78 145.728 2307.38 146.888 2306.57 147.843C2305.77 148.799 2304.73 149.276 2303.46 149.276H2287.9C2286.75 149.276 2285.77 148.799 2284.96 147.843C2284.16 146.888 2283.75 145.728 2283.75 144.364V89.5095H2232.76V144.364C2232.76 145.728 2232.35 146.888 2231.54 147.843C2230.85 148.799 2229.87 149.276 2228.61 149.276H2212.87Z"/>
<path d="M2370.63 149.276C2369.48 149.276 2368.5 148.799 2367.69 147.843C2366.88 146.888 2366.48 145.728 2366.48 144.364V98.1061L2325.68 12.5498C2325.56 12.2769 2325.45 11.9357 2325.33 11.5264C2325.22 11.117 2325.16 10.7076 2325.16 10.2983C2325.16 9.07021 2325.51 8.04681 2326.2 7.22809C2326.89 6.40936 2327.7 6 2328.62 6H2344C2345.39 6 2346.48 6.40936 2347.29 7.22809C2348.21 8.04681 2348.85 8.93375 2349.19 9.88892L2378.58 69.4509L2407.8 9.88892C2408.26 8.93375 2408.89 8.04681 2409.7 7.22809C2410.62 6.40936 2411.77 6 2413.16 6H2428.37C2429.41 6 2430.27 6.40936 2430.96 7.22809C2431.65 8.04681 2432 9.07021 2432 10.2983C2432 10.7076 2431.94 11.117 2431.83 11.5264C2431.83 11.9357 2431.71 12.2769 2431.48 12.5498L2390.68 98.1061V144.364C2390.68 145.728 2390.28 146.888 2389.47 147.843C2388.67 148.799 2387.63 149.276 2386.36 149.276H2370.63Z"/>
</mask>
<path d="M1674.15 149.276C1673 149.276 1672.02 148.867 1671.21 148.048C1670.4 147.093 1670 145.865 1670 144.364V11.117C1670 9.61602 1670.4 8.38793 1671.21 7.43276C1672.02 6.47759 1673 6 1674.15 6H1689.88C1691.15 6 1692.13 6.47759 1692.82 7.43276C1693.63 8.38793 1694.03 9.61602 1694.03 11.117V63.9245H1745.03V11.117C1745.03 9.61602 1745.43 8.38793 1746.24 7.43276C1747.05 6.47759 1748.03 6 1749.18 6H1764.74C1766.01 6 1767.04 6.47759 1767.85 7.43276C1768.66 8.38793 1769.06 9.61602 1769.06 11.117V144.364C1769.06 145.728 1768.66 146.888 1767.85 147.843C1767.04 148.799 1766.01 149.276 1764.74 149.276H1749.18C1748.03 149.276 1747.05 148.799 1746.24 147.843C1745.43 146.888 1745.03 145.728 1745.03 144.364V89.5095H1694.03V144.364C1694.03 145.728 1693.63 146.888 1692.82 147.843C1692.13 148.799 1691.15 149.276 1689.88 149.276H1674.15Z" stroke="#FAFAFA" stroke-width="12" mask="url(#path-3-outside-3_75_7)"/>
<path d="M1800.09 149.276C1798.94 149.276 1797.96 148.799 1797.15 147.843C1796.35 146.888 1795.94 145.728 1795.94 144.364V11.117C1795.94 9.61602 1796.35 8.38793 1797.15 7.43276C1797.96 6.47759 1798.94 6 1800.09 6H1876.16C1877.43 6 1878.47 6.47759 1879.27 7.43276C1880.08 8.38793 1880.48 9.61602 1880.48 11.117V24.6259C1880.48 25.9904 1880.08 27.1503 1879.27 28.1055C1878.47 29.0606 1877.43 29.5382 1876.16 29.5382H1819.28V65.7666H1872.36C1873.62 65.7666 1874.66 66.2442 1875.47 67.1994C1876.28 68.0181 1876.68 69.1779 1876.68 70.6789V83.3691C1876.68 84.8701 1876.28 86.0982 1875.47 87.0533C1874.66 87.8721 1873.62 88.2814 1872.36 88.2814H1819.28V125.738H1877.54C1878.81 125.738 1879.85 126.215 1880.65 127.171C1881.46 128.126 1881.86 129.354 1881.86 130.855V144.364C1881.86 145.728 1881.46 146.888 1880.65 147.843C1879.85 148.799 1878.81 149.276 1877.54 149.276H1800.09Z" stroke="#FAFAFA" stroke-width="12" mask="url(#path-3-outside-3_75_7)"/>
<path d="M1896.05 149.276C1895.13 149.276 1894.27 148.867 1893.46 148.048C1892.77 147.229 1892.42 146.206 1892.42 144.978C1892.42 144.432 1892.54 143.818 1892.77 143.136L1934.43 11.117C1934.78 9.75247 1935.41 8.59261 1936.33 7.63744C1937.37 6.54581 1938.75 6 1940.48 6H1959.33C1961.06 6 1962.38 6.54581 1963.3 7.63744C1964.22 8.59261 1964.92 9.75247 1965.38 11.117L2007.04 143.136C2007.16 143.818 2007.21 144.432 2007.21 144.978C2007.21 146.206 2006.87 147.229 2006.18 148.048C2005.49 148.867 2004.68 149.276 2003.76 149.276H1988.72C1987.1 149.276 1985.89 148.867 1985.09 148.048C1984.39 147.093 1983.93 146.206 1983.7 145.387L1975.58 120.416H1924.23L1916.11 145.387C1915.88 146.206 1915.36 147.093 1914.55 148.048C1913.86 148.867 1912.71 149.276 1911.09 149.276H1896.05ZM1930.28 96.878H1969.53L1949.82 33.6318L1930.28 96.878Z" stroke="#FAFAFA" stroke-width="12" mask="url(#path-3-outside-3_75_7)"/>
<path d="M2027.5 149.276C2026.35 149.276 2025.37 148.799 2024.56 147.843C2023.76 146.888 2023.35 145.728 2023.35 144.364V10.9123C2023.35 9.54779 2023.76 8.38793 2024.56 7.43276C2025.37 6.47759 2026.35 6 2027.5 6H2043.58C2044.73 6 2045.71 6.47759 2046.52 7.43276C2047.33 8.38793 2047.73 9.54779 2047.73 10.9123V124.919H2102.53C2103.8 124.919 2104.84 125.397 2105.64 126.352C2106.45 127.307 2106.85 128.535 2106.85 130.036V144.364C2106.85 145.728 2106.45 146.888 2105.64 147.843C2104.84 148.799 2103.8 149.276 2102.53 149.276H2027.5Z" stroke="#FAFAFA" stroke-width="12" mask="url(#path-3-outside-3_75_7)"/>
<path d="M2134.82 149.276C2133.67 149.276 2132.69 148.799 2131.89 147.843C2131.08 146.888 2130.68 145.728 2130.68 144.364V31.1757H2098.69C2097.54 31.1757 2096.56 30.6981 2095.75 29.7429C2094.95 28.7877 2094.54 27.6279 2094.54 26.2633V11.117C2094.54 9.61602 2094.95 8.38793 2095.75 7.43276C2096.56 6.47759 2097.54 6 2098.69 6H2186.86C2188.13 6 2189.17 6.47759 2189.97 7.43276C2190.78 8.38793 2191.18 9.61602 2191.18 11.117V26.2633C2191.18 27.6279 2190.78 28.7877 2189.97 29.7429C2189.17 30.6981 2188.13 31.1757 2186.86 31.1757H2155.05V144.364C2155.05 145.728 2154.65 146.888 2153.84 147.843C2153.03 148.799 2152 149.276 2150.73 149.276H2134.82Z" stroke="#FAFAFA" stroke-width="12" mask="url(#path-3-outside-3_75_7)"/>
<path d="M2212.87 149.276C2211.72 149.276 2210.74 148.867 2209.94 148.048C2209.13 147.093 2208.73 145.865 2208.73 144.364V11.117C2208.73 9.61602 2209.13 8.38793 2209.94 7.43276C2210.74 6.47759 2211.72 6 2212.87 6H2228.61C2229.87 6 2230.85 6.47759 2231.54 7.43276C2232.35 8.38793 2232.76 9.61602 2232.76 11.117V63.9245H2283.75V11.117C2283.75 9.61602 2284.16 8.38793 2284.96 7.43276C2285.77 6.47759 2286.75 6 2287.9 6H2303.46C2304.73 6 2305.77 6.47759 2306.57 7.43276C2307.38 8.38793 2307.78 9.61602 2307.78 11.117V144.364C2307.78 145.728 2307.38 146.888 2306.57 147.843C2305.77 148.799 2304.73 149.276 2303.46 149.276H2287.9C2286.75 149.276 2285.77 148.799 2284.96 147.843C2284.16 146.888 2283.75 145.728 2283.75 144.364V89.5095H2232.76V144.364C2232.76 145.728 2232.35 146.888 2231.54 147.843C2230.85 148.799 2229.87 149.276 2228.61 149.276H2212.87Z" stroke="#FAFAFA" stroke-width="12" mask="url(#path-3-outside-3_75_7)"/>
<path d="M2370.63 149.276C2369.48 149.276 2368.5 148.799 2367.69 147.843C2366.88 146.888 2366.48 145.728 2366.48 144.364V98.1061L2325.68 12.5498C2325.56 12.2769 2325.45 11.9357 2325.33 11.5264C2325.22 11.117 2325.16 10.7076 2325.16 10.2983C2325.16 9.07021 2325.51 8.04681 2326.2 7.22809C2326.89 6.40936 2327.7 6 2328.62 6H2344C2345.39 6 2346.48 6.40936 2347.29 7.22809C2348.21 8.04681 2348.85 8.93375 2349.19 9.88892L2378.58 69.4509L2407.8 9.88892C2408.26 8.93375 2408.89 8.04681 2409.7 7.22809C2410.62 6.40936 2411.77 6 2413.16 6H2428.37C2429.41 6 2430.27 6.40936 2430.96 7.22809C2431.65 8.04681 2432 9.07021 2432 10.2983C2432 10.7076 2431.94 11.117 2431.83 11.5264C2431.83 11.9357 2431.71 12.2769 2431.48 12.5498L2390.68 98.1061V144.364C2390.68 145.728 2390.28 146.888 2389.47 147.843C2388.67 148.799 2387.63 149.276 2386.36 149.276H2370.63Z" stroke="#FAFAFA" stroke-width="12" mask="url(#path-3-outside-3_75_7)"/>
</svg>
